<svg xmlns="http://www.w3.org/2000/svg" viewBox="0 0 508 150" opacity=".15">
    <title>mTab_MAIN</title>
    <path d="M124.22,102.75a3,3,0,0,0,0-4.24L100.73,75,77.23,51.52a3,3,0,0,0-4.24,0L49.5,75,26,98.51a3,3,0,0,0,0,4.24l21.38,21.37a3,3,0,0,0,4.24,0l23.49-23.49,23.5,23.49a3,3,0,0,0,4.24,0Z"
          style="fill:#6bdaff"/>
    <path d="M167.11,25.9a3,3,0,0,0-4.24,0l-23.5,23.5L115.88,72.89a3,3,0,0,0,0,4.24l23.49,23.5,23.5,23.49a3,3,0,0,0,4.24,0l21.37-21.37a3,3,0,0,0,0-4.24L165,75l23.49-23.49a3,3,0,0,0,0-4.24Z"
          style="fill:#b7edff"/>
    <path d="M303.65,64.18q5.52,5.49,5.51,16.44l0,26.73a1.92,1.92,0,0,1-1.93,1.92h-7.85a2,2,0,0,1-1.93-1.94l0-25.22q0-6.56-2.89-9.89c-1.94-2.21-4.71-3.33-8.33-3.33a12.21,12.21,0,0,0-9.46,3.88q-3.57,3.87-3.57,11.09l0,23.45a1.92,1.92,0,0,1-1.93,1.92h-7.85a2,2,0,0,1-1.93-1.94l0-25.22q0-6.55-2.89-9.88t-8.33-3.34a12.24,12.24,0,0,0-9.51,3.83q-3.51,3.84-3.52,11.14l0,23.45a1.92,1.92,0,0,1-1.93,1.92h-7.85a1.93,1.93,0,0,1-1.92-1.94l.05-46.14a1.92,1.92,0,0,1,1.93-1.93h7.28a1.93,1.93,0,0,1,1.93,1.93v4.44a18.16,18.16,0,0,1,7-5.14,23.64,23.64,0,0,1,9.37-1.77,22.52,22.52,0,0,1,10,2.12A16.18,16.18,0,0,1,269.94,67a20.85,20.85,0,0,1,8-6.13,25.82,25.82,0,0,1,10.77-2.18Q298.14,58.69,303.65,64.18Z"
          style="fill:#0f2933"/>
    <path d="M331.46,54.05l-19.79,0a1.93,1.93,0,0,1-1.93-1.93V45.66a1.92,1.92,0,0,1,1.93-1.93l51.76.06a1.92,1.92,0,0,1,1.93,1.93v6.44a1.93,1.93,0,0,1-1.93,1.93l-19.79,0-.06,53.32a1.93,1.93,0,0,1-1.94,1.93h-8.31a1.92,1.92,0,0,1-1.93-1.93Z"
          style="fill:#0f2933"/>
    <path d="M416,61.32l-.06,46.14a1.92,1.92,0,0,1-1.93,1.93h-7.28a1.92,1.92,0,0,1-1.93-1.93v-4.53a18.11,18.11,0,0,1-7.17,5.33,24.36,24.36,0,0,1-9.42,1.77,26.57,26.57,0,0,1-13.06-3.2,22.73,22.73,0,0,1-9-9,27.33,27.33,0,0,1-3.21-13.49,27,27,0,0,1,3.24-13.43,22.67,22.67,0,0,1,9-8.93,26.51,26.51,0,0,1,13.07-3.17,23,23,0,0,1,8.94,1.69,19.79,19.79,0,0,1,7.07,5V61.31a1.93,1.93,0,0,1,1.93-1.93H414A1.93,1.93,0,0,1,416,61.32ZM400.18,95.7q4.21-4.29,4.22-11.32T400.2,73a14.34,14.34,0,0,0-10.67-4.32A14.15,14.15,0,0,0,378.9,73q-4.17,4.31-4.18,11.32t4.15,11.34A14.17,14.17,0,0,0,389.5,100,14.34,14.34,0,0,0,400.18,95.7Z"
          style="fill:#0f2933"/>
    <path d="M470.58,62.07a23,23,0,0,1,9,9,26.77,26.77,0,0,1,3.27,13.4,27.18,27.18,0,0,1-3.29,13.43,22.92,22.92,0,0,1-9.05,9,26.59,26.59,0,0,1-13.07,3.17,24.5,24.5,0,0,1-9.41-1.79A18,18,0,0,1,440.9,103v4.53a1.93,1.93,0,0,1-1.93,1.93h-7.28a1.92,1.92,0,0,1-1.93-1.93l.07-65.62a1.93,1.93,0,0,1,1.93-1.93h7.85a1.94,1.94,0,0,1,1.93,1.93l0,23.63a19.7,19.7,0,0,1,7.07-5,23.27,23.27,0,0,1,8.95-1.68A26.68,26.68,0,0,1,470.58,62.07ZM466.8,95.78Q471,91.48,471,84.45t-4.16-11.33A14.11,14.11,0,0,0,456.2,68.8a15.07,15.07,0,0,0-7.59,1.91,13.85,13.85,0,0,0-5.34,5.47,18.22,18.22,0,0,0,0,16.48,13.81,13.81,0,0,0,5.33,5.49,15,15,0,0,0,7.58,1.92A14.14,14.14,0,0,0,466.8,95.78Z"
          style="fill:#0f2933"/>
    <rect x="-0.01" y="0.13" width="508.03" height="149.92" style="fill:none"/>
</svg>